<svg xmlns="http://www.w3.org/2000/svg" xmlns:xlink="http://www.w3.org/1999/xlink" width="1080" zoomAndPan="magnify" viewBox="0 0 810 809.999993" height="1080" preserveAspectRatio="xMidYMid meet" version="1.2"><defs><clipPath id="6fb8eb0788"><path d="M 380 157 L 442 157 L 442 704 L 380 704 Z M 380 157 "/></clipPath><clipPath id="ceb5cb4ff5"><path d="M 398.253906 157.328125 L 441.742188 158.75 L 423.980469 703.039062 L 380.496094 701.621094 Z M 398.253906 157.328125 "/></clipPath><clipPath id="ca6c0958a2"><path d="M 376.460938 718.699219 L 421.78125 718.699219 L 421.78125 764.019531 L 376.460938 764.019531 Z M 376.460938 718.699219 "/></clipPath><clipPath id="719f2f975c"><path d="M 399.121094 718.699219 C 386.605469 718.699219 376.460938 728.847656 376.460938 741.359375 C 376.460938 753.875 386.605469 764.019531 399.121094 764.019531 C 411.636719 764.019531 421.78125 753.875 421.78125 741.359375 C 421.78125 728.847656 411.636719 718.699219 399.121094 718.699219 Z M 399.121094 718.699219 "/></clipPath><clipPath id="6f61da9d14"><path d="M 399.121094 81 L 444.441406 81 L 444.441406 126.320312 L 399.121094 126.320312 Z M 399.121094 81 "/></clipPath><clipPath id="a3cfcb20c7"><path d="M 421.78125 81 C 409.265625 81 399.121094 91.144531 399.121094 103.660156 C 399.121094 116.175781 409.265625 126.320312 421.78125 126.320312 C 434.296875 126.320312 444.441406 116.175781 444.441406 103.660156 C 444.441406 91.144531 434.296875 81 421.78125 81 Z M 421.78125 81 "/></clipPath></defs><g id="63ed54a328"><rect x="0" width="810" y="0" height="809.999993" style="fill:#ffffff;fill-opacity:1;stroke:none;"/><rect x="0" width="810" y="0" height="809.999993" style="fill:#ffffff;fill-opacity:1;stroke:none;"/><g clip-rule="nonzero" clip-path="url(#6fb8eb0788)"><g clip-rule="nonzero" clip-path="url(#ceb5cb4ff5)"><path style=" stroke:none;fill-rule:nonzero;fill:#000000;fill-opacity:1;" d="M 398.253906 157.328125 L 441.742188 158.75 L 423.984375 703.007812 L 380.496094 701.589844 Z M 398.253906 157.328125 "/></g></g><g style="fill:#000000;fill-opacity:1;"><g transform="translate(168.593064, 360.353471)"><path style="stroke:none" d="M 56.265625 -119.625 L 63.421875 -3.921875 L 25.5 -1.578125 L 9.40625 -261.390625 L 46.828125 -263.703125 L 52.8125 -167.046875 L 55.21875 -167.203125 C 59.144531 -177.960938 65.613281 -186.722656 74.625 -193.484375 C 83.632812 -200.242188 95.707031 -204.09375 110.84375 -205.03125 C 124.195312 -205.851562 136.054688 -203.820312 146.421875 -198.9375 C 156.785156 -194.0625 165.070312 -186.363281 171.28125 -175.84375 C 177.5 -165.320312 181.113281 -151.941406 182.125 -135.703125 L 189.796875 -11.75 L 151.859375 -9.40625 L 144.46875 -128.78125 C 143.582031 -143.082031 139.210938 -153.957031 131.359375 -161.40625 C 123.515625 -168.851562 113.035156 -172.171875 99.921875 -171.359375 C 90.960938 -170.804688 83.066406 -168.40625 76.234375 -164.15625 C 69.410156 -159.914062 64.210938 -154.015625 60.640625 -146.453125 C 57.078125 -138.890625 55.617188 -129.945312 56.265625 -119.625 Z M 56.265625 -119.625 "/></g></g><g style="fill:#000000;fill-opacity:1;"><g transform="translate(448.114896, 347.199514)"><path style="stroke:none" d="M 21.421875 1.609375 L 23.375 -24.375 L 138.921875 -150.390625 L 139.0625 -152.171875 L 37.015625 -159.859375 L 39.484375 -192.8125 L 188.796875 -181.578125 L 186.71875 -153.953125 L 75.359375 -29.25 L 75.234375 -27.46875 L 180.1875 -19.5625 L 177.703125 13.390625 Z M 21.421875 1.609375 "/></g></g><g style="fill:#000000;fill-opacity:1;"><g transform="translate(164.872246, 669.248014)"><path style="stroke:none" d="M 60.5 -66.21875 L 60.25 -112.625 L 66.859375 -112.625 L 144.65625 -195.234375 L 190.15625 -195.234375 L 101.4375 -101.171875 L 95.453125 -101.171875 Z M 25.546875 0 L 25.546875 -260.3125 L 63.546875 -260.3125 L 63.546875 0 Z M 148.84375 0 L 78.9375 -92.796875 L 105.125 -119.359375 L 195.5 0 Z M 148.84375 0 "/></g></g><g style="fill:#000000;fill-opacity:1;"><g transform="translate(452.397938, 643.987474)"><path style="stroke:none" d="M 82.359375 -4.109375 C 70.066406 -2.835938 58.710938 -3.988281 48.296875 -7.5625 C 37.878906 -11.144531 29.328125 -17.019531 22.640625 -25.1875 C 15.960938 -33.363281 11.96875 -43.816406 10.65625 -56.546875 C 9.53125 -67.503906 10.710938 -76.738281 14.203125 -84.25 C 17.691406 -91.769531 22.804688 -97.960938 29.546875 -102.828125 C 36.296875 -107.703125 43.984375 -111.644531 52.609375 -114.65625 C 61.242188 -117.664062 70.097656 -120.195312 79.171875 -122.25 C 90.671875 -124.789062 100 -126.875 107.15625 -128.5 C 114.320312 -130.132812 119.441406 -132.128906 122.515625 -134.484375 C 125.597656 -136.847656 126.90625 -140.304688 126.4375 -144.859375 L 126.34375 -145.75 C 125.207031 -156.789062 121.226562 -165.023438 114.40625 -170.453125 C 107.582031 -175.878906 98.0625 -177.96875 85.84375 -176.71875 C 73.113281 -175.40625 63.390625 -171.570312 56.671875 -165.21875 C 49.960938 -158.863281 45.566406 -152.128906 43.484375 -145.015625 L 7.125 -149.453125 C 10.125 -161.691406 15.316406 -171.875 22.703125 -180 C 30.097656 -188.125 38.929688 -194.398438 49.203125 -198.828125 C 59.484375 -203.253906 70.476562 -206.070312 82.1875 -207.28125 C 89.945312 -208.070312 98.285156 -208.003906 107.203125 -207.078125 C 116.117188 -206.160156 124.632812 -203.691406 132.75 -199.671875 C 140.875 -195.660156 147.835938 -189.457031 153.640625 -181.0625 C 159.441406 -172.664062 163.070312 -161.390625 164.53125 -147.234375 L 177.78125 -18.265625 L 140.84375 -14.46875 L 138.109375 -41.015625 L 136.609375 -40.859375 C 134.671875 -35.734375 131.5 -30.554688 127.09375 -25.328125 C 122.6875 -20.097656 116.804688 -15.523438 109.453125 -11.609375 C 102.109375 -7.703125 93.078125 -5.203125 82.359375 -4.109375 Z M 87.484375 -35.3125 C 97.929688 -36.382812 106.671875 -39.367188 113.703125 -44.265625 C 120.742188 -49.160156 125.878906 -55.15625 129.109375 -62.25 C 132.335938 -69.351562 133.554688 -76.742188 132.765625 -84.421875 L 130.203125 -109.453125 C 128.984375 -107.972656 126.515625 -106.46875 122.796875 -104.9375 C 119.078125 -103.414062 114.8125 -102 110 -100.6875 C 105.195312 -99.382812 100.507812 -98.175781 95.9375 -97.0625 C 91.375 -95.957031 87.554688 -95.03125 84.484375 -94.28125 C 77.242188 -92.613281 70.71875 -90.375 64.90625 -87.5625 C 59.101562 -84.75 54.625 -81.113281 51.46875 -76.65625 C 48.3125 -72.195312 47.078125 -66.597656 47.765625 -59.859375 C 48.734375 -50.492188 52.914062 -43.785156 60.3125 -39.734375 C 67.71875 -35.679688 76.773438 -34.207031 87.484375 -35.3125 Z M 87.484375 -35.3125 "/></g></g><g clip-rule="nonzero" clip-path="url(#ca6c0958a2)"><g clip-rule="nonzero" clip-path="url(#719f2f975c)"><path style=" stroke:none;fill-rule:nonzero;fill:#000000;fill-opacity:1;" d="M 376.460938 718.699219 L 421.78125 718.699219 L 421.78125 764.019531 L 376.460938 764.019531 Z M 376.460938 718.699219 "/></g></g><g clip-rule="nonzero" clip-path="url(#6f61da9d14)"><g clip-rule="nonzero" clip-path="url(#a3cfcb20c7)"><path style=" stroke:none;fill-rule:nonzero;fill:#000000;fill-opacity:1;" d="M 399.121094 81 L 444.441406 81 L 444.441406 126.320312 L 399.121094 126.320312 Z M 399.121094 81 "/></g></g></g></svg>